<svg xmlns="http://w3.org" viewBox="0 0 100 100">
  <!-- Soft Shadow / Background Glow -->
  <circle cx="50" cy="54" r="44" fill="#166FE5" opacity="0.15" />
  
  <!-- Facebook Blue Round Square Base -->
  <rect x="6" y="6" width="88" height="88" rx="24" fill="#1877F2" />
  
  <!-- White Inlay for the Letter P / Post Bubble -->
  <path d="M35 28 H58 C70 28 78 35 78 45 C78 55 70 62 58 62 H47 V76 C47 78 45 80 43 80 H35 C33 80 31 78 31 76 V32 C31 30 33 28 35 28 Z" fill="#FFFFFF" />
  
  <!-- Inside Hole of the Letter P -->
  <path d="M47 40 V50 H56 C60 50 64 48 64 45 C64 42 60 40 56 40 H47 Z" fill="#1877F2" />
  
  <!-- Small Dot representing a Notification or Social Pulse -->
  <circle cx="76" cy="24" r="10" fill="#E41E3F" />
</svg>
